# xmcd database file
#
# Track frame offsets:
# 182
# 11622
# 31582
# 46397
# 60367
# 73855
# 83895
# 97512
# 111332
# 130147
#
# Disc length: 1943 seconds
#
# Revision: 2
# Processed by: cddbd v1.5.2PL0 Copyright (c) Steve Scherf et al.
# Submitted via: CD-Runner 2007.00
#
DISCID=7307950a
DTITLE=Merle Haggard - 1996 Merle Haggard
DYEAR=1996
DGENRE=Country
TTITLE0=Sin City Blues
TTITLE1=No Time To Cry
TTITLE2=Beer Can Hill
TTITLE3=Truck Driver's Blues
TTITLE4=Too Many Highways
TTITLE5=Five Days A Week
TTITLE6=Kids Get Lonesome Too
TTITLE7=If Anyone Ought To Know
TTITLE8=Untanglin' My Mind
TTITLE9=Winds Of Change
EXTD=
EXTT0=
EXTT1=
EXTT2=
EXTT3=
EXTT4=
EXTT5=
EXTT6=
EXTT7=
EXTT8=
EXTT9=
PLAYORDER=
